<?xml version="1.0" standalone="no"?>
<!DOCTYPE svg PUBLIC "-//W3C//DTD SVG 1.1//EN" "http://www.w3.org/Graphics/SVG/1.1/DTD/svg11.dtd">
<svg width="800" height="600" version="1.1" xmlns="http://www.w3.org/2000/svg">
<rect width="800" height="600" x="0" y="0" style="fill:rgb(238,238,238);stroke:none"/>
<rect width="800" height="600" x="0" y="0" style="fill:rgb(255,255,255);stroke:none"/>
<text x="2" y="566" fill="rgb(0,0,0)" font-family="Arial" font-size="12">0</text>
<text x="2" y="514" fill="rgb(0,0,0)" font-family="Arial" font-size="12">100000</text>
<text x="2" y="462" fill="rgb(0,0,0)" font-family="Arial" font-size="12">200000</text>
<text x="2" y="410" fill="rgb(0,0,0)" font-family="Arial" font-size="12">300000</text>
<text x="2" y="358" fill="rgb(0,0,0)" font-family="Arial" font-size="12">400000</text>
<text x="2" y="306" fill="rgb(0,0,0)" font-family="Arial" font-size="12">500000</text>
<text x="2" y="254" fill="rgb(0,0,0)" font-family="Arial" font-size="12">600000</text>
<text x="2" y="202" fill="rgb(0,0,0)" font-family="Arial" font-size="12">700000</text>
<text x="2" y="150" fill="rgb(0,0,0)" font-family="Arial" font-size="12">800000</text>
<text x="2" y="98" fill="rgb(0,0,0)" font-family="Arial" font-size="12">900000</text>
<text x="282" y="30" fill="rgb(0,0,0)" font-family="Arial" font-size="12">Quality score distribution over all sequences</text>
<line x1="53" y1="560" x2="790" y2="560" stroke="rgb(0,0,0)" stroke-width="1"/>
<line x1="53" y1="560" x2="53" y2="40" stroke="rgb(0,0,0)" stroke-width="1"/>
<text x="281" y="595" fill="rgb(0,0,0)" font-family="Arial" font-size="12">Mean Sequence Quality (Phred Score)</text>
<text x="59" y="575" fill="rgb(0,0,0)" font-family="Arial" font-size="12">1</text>
<rect width="21" height="520" x="74" y="40" style="fill:rgb(230,230,230);stroke:none"/>
<text x="80" y="575" fill="rgb(0,0,0)" font-family="Arial" font-size="12">2</text>
<text x="101" y="575" fill="rgb(0,0,0)" font-family="Arial" font-size="12">3</text>
<rect width="21" height="520" x="116" y="40" style="fill:rgb(230,230,230);stroke:none"/>
<text x="122" y="575" fill="rgb(0,0,0)" font-family="Arial" font-size="12">4</text>
<text x="143" y="575" fill="rgb(0,0,0)" font-family="Arial" font-size="12">5</text>
<rect width="21" height="520" x="158" y="40" style="fill:rgb(230,230,230);stroke:none"/>
<text x="164" y="575" fill="rgb(0,0,0)" font-family="Arial" font-size="12">6</text>
<text x="185" y="575" fill="rgb(0,0,0)" font-family="Arial" font-size="12">7</text>
<rect width="21" height="520" x="200" y="40" style="fill:rgb(230,230,230);stroke:none"/>
<text x="206" y="575" fill="rgb(0,0,0)" font-family="Arial" font-size="12">8</text>
<text x="227" y="575" fill="rgb(0,0,0)" font-family="Arial" font-size="12">9</text>
<rect width="21" height="520" x="242" y="40" style="fill:rgb(230,230,230);stroke:none"/>
<text x="244" y="575" fill="rgb(0,0,0)" font-family="Arial" font-size="12">10</text>
<rect width="21" height="520" x="284" y="40" style="fill:rgb(230,230,230);stroke:none"/>
<text x="286" y="575" fill="rgb(0,0,0)" font-family="Arial" font-size="12">12</text>
<rect width="21" height="520" x="326" y="40" style="fill:rgb(230,230,230);stroke:none"/>
<text x="328" y="575" fill="rgb(0,0,0)" font-family="Arial" font-size="12">14</text>
<rect width="21" height="520" x="368" y="40" style="fill:rgb(230,230,230);stroke:none"/>
<text x="370" y="575" fill="rgb(0,0,0)" font-family="Arial" font-size="12">16</text>
<rect width="21" height="520" x="410" y="40" style="fill:rgb(230,230,230);stroke:none"/>
<text x="412" y="575" fill="rgb(0,0,0)" font-family="Arial" font-size="12">18</text>
<rect width="21" height="520" x="452" y="40" style="fill:rgb(230,230,230);stroke:none"/>
<text x="454" y="575" fill="rgb(0,0,0)" font-family="Arial" font-size="12">20</text>
<rect width="21" height="520" x="494" y="40" style="fill:rgb(230,230,230);stroke:none"/>
<text x="496" y="575" fill="rgb(0,0,0)" font-family="Arial" font-size="12">22</text>
<rect width="21" height="520" x="536" y="40" style="fill:rgb(230,230,230);stroke:none"/>
<text x="538" y="575" fill="rgb(0,0,0)" font-family="Arial" font-size="12">24</text>
<rect width="21" height="520" x="578" y="40" style="fill:rgb(230,230,230);stroke:none"/>
<text x="580" y="575" fill="rgb(0,0,0)" font-family="Arial" font-size="12">26</text>
<rect width="21" height="520" x="620" y="40" style="fill:rgb(230,230,230);stroke:none"/>
<text x="622" y="575" fill="rgb(0,0,0)" font-family="Arial" font-size="12">28</text>
<rect width="21" height="520" x="662" y="40" style="fill:rgb(230,230,230);stroke:none"/>
<text x="664" y="575" fill="rgb(0,0,0)" font-family="Arial" font-size="12">30</text>
<rect width="21" height="520" x="704" y="40" style="fill:rgb(230,230,230);stroke:none"/>
<text x="706" y="575" fill="rgb(0,0,0)" font-family="Arial" font-size="12">32</text>
<rect width="21" height="520" x="746" y="40" style="fill:rgb(230,230,230);stroke:none"/>
<text x="748" y="575" fill="rgb(0,0,0)" font-family="Arial" font-size="12">34</text>
<line x1="53" y1="560" x2="790" y2="560" stroke="rgb(180,180,180)" stroke-width="1"/>
<line x1="53" y1="508" x2="790" y2="508" stroke="rgb(180,180,180)" stroke-width="1"/>
<line x1="53" y1="456" x2="790" y2="456" stroke="rgb(180,180,180)" stroke-width="1"/>
<line x1="53" y1="404" x2="790" y2="404" stroke="rgb(180,180,180)" stroke-width="1"/>
<line x1="53" y1="352" x2="790" y2="352" stroke="rgb(180,180,180)" stroke-width="1"/>
<line x1="53" y1="300" x2="790" y2="300" stroke="rgb(180,180,180)" stroke-width="1"/>
<line x1="53" y1="248" x2="790" y2="248" stroke="rgb(180,180,180)" stroke-width="1"/>
<line x1="53" y1="196" x2="790" y2="196" stroke="rgb(180,180,180)" stroke-width="1"/>
<line x1="53" y1="144" x2="790" y2="144" stroke="rgb(180,180,180)" stroke-width="1"/>
<line x1="53" y1="92" x2="790" y2="92" stroke="rgb(180,180,180)" stroke-width="1"/>
<line x1="63" y1="560" x2="84" y2="560" stroke="rgb(136,34,85)" stroke-width="1"/>
<line x1="84" y1="560" x2="105" y2="560" stroke="rgb(136,34,85)" stroke-width="1"/>
<line x1="105" y1="560" x2="126" y2="560" stroke="rgb(136,34,85)" stroke-width="1"/>
<line x1="126" y1="560" x2="147" y2="558" stroke="rgb(136,34,85)" stroke-width="1"/>
<line x1="147" y1="558" x2="168" y2="509" stroke="rgb(136,34,85)" stroke-width="1"/>
<line x1="168" y1="509" x2="189" y2="555" stroke="rgb(136,34,85)" stroke-width="1"/>
<line x1="189" y1="555" x2="210" y2="555" stroke="rgb(136,34,85)" stroke-width="1"/>
<line x1="210" y1="555" x2="231" y2="554" stroke="rgb(136,34,85)" stroke-width="1"/>
<line x1="231" y1="554" x2="252" y2="554" stroke="rgb(136,34,85)" stroke-width="1"/>
<line x1="252" y1="554" x2="273" y2="555" stroke="rgb(136,34,85)" stroke-width="1"/>
<line x1="273" y1="555" x2="294" y2="553" stroke="rgb(136,34,85)" stroke-width="1"/>
<line x1="294" y1="553" x2="315" y2="554" stroke="rgb(136,34,85)" stroke-width="1"/>
<line x1="315" y1="554" x2="336" y2="552" stroke="rgb(136,34,85)" stroke-width="1"/>
<line x1="336" y1="552" x2="357" y2="552" stroke="rgb(136,34,85)" stroke-width="1"/>
<line x1="357" y1="552" x2="378" y2="551" stroke="rgb(136,34,85)" stroke-width="1"/>
<line x1="378" y1="551" x2="399" y2="551" stroke="rgb(136,34,85)" stroke-width="1"/>
<line x1="399" y1="551" x2="420" y2="550" stroke="rgb(136,34,85)" stroke-width="1"/>
<line x1="420" y1="550" x2="441" y2="550" stroke="rgb(136,34,85)" stroke-width="1"/>
<line x1="441" y1="550" x2="462" y2="549" stroke="rgb(136,34,85)" stroke-width="1"/>
<line x1="462" y1="549" x2="483" y2="548" stroke="rgb(136,34,85)" stroke-width="1"/>
<line x1="483" y1="548" x2="504" y2="547" stroke="rgb(136,34,85)" stroke-width="1"/>
<line x1="504" y1="547" x2="525" y2="546" stroke="rgb(136,34,85)" stroke-width="1"/>
<line x1="525" y1="546" x2="546" y2="544" stroke="rgb(136,34,85)" stroke-width="1"/>
<line x1="546" y1="544" x2="567" y2="541" stroke="rgb(136,34,85)" stroke-width="1"/>
<line x1="567" y1="541" x2="588" y2="538" stroke="rgb(136,34,85)" stroke-width="1"/>
<line x1="588" y1="538" x2="609" y2="534" stroke="rgb(136,34,85)" stroke-width="1"/>
<line x1="609" y1="534" x2="630" y2="528" stroke="rgb(136,34,85)" stroke-width="1"/>
<line x1="630" y1="528" x2="651" y2="520" stroke="rgb(136,34,85)" stroke-width="1"/>
<line x1="651" y1="520" x2="672" y2="502" stroke="rgb(136,34,85)" stroke-width="1"/>
<line x1="672" y1="502" x2="693" y2="455" stroke="rgb(136,34,85)" stroke-width="1"/>
<line x1="693" y1="455" x2="714" y2="40" stroke="rgb(136,34,85)" stroke-width="1"/>
<line x1="714" y1="40" x2="735" y2="354" stroke="rgb(136,34,85)" stroke-width="1"/>
<line x1="735" y1="354" x2="756" y2="560" stroke="rgb(136,34,85)" stroke-width="1"/>
<rect width="183" height="23" x="607" y="40" style="fill:rgb(255,255,255);stroke:none"/>
<rect width="183" height="23" x="607" y="40" rx="0" ry="0" style="fill:none;stroke-width:1;stroke:rgb(192,192,192)"/>
<text x="610" y="55" fill="rgb(136,34,85)" font-family="Arial" font-size="12" font-weight="bold">Average Quality per read</text>
</svg>
