<?xml version="1.0" standalone="no"?>
<!DOCTYPE svg PUBLIC "-//W3C//DTD SVG 1.1//EN" "http://www.w3.org/Graphics/SVG/1.1/DTD/svg11.dtd">
<svg width="800" height="600" version="1.1" xmlns="http://www.w3.org/2000/svg">
<rect width="800" height="600" x="0" y="0" style="fill:rgb(238,238,238);stroke:none"/>
<rect width="800" height="600" x="0" y="0" style="fill:rgb(255,255,255);stroke:none"/>
<text x="2" y="566" fill="rgb(0,0,0)" font-family="Arial" font-size="12">0</text>
<text x="2" y="490" fill="rgb(0,0,0)" font-family="Arial" font-size="12">50000</text>
<text x="2" y="413" fill="rgb(0,0,0)" font-family="Arial" font-size="12">100000</text>
<text x="2" y="336" fill="rgb(0,0,0)" font-family="Arial" font-size="12">150000</text>
<text x="2" y="260" fill="rgb(0,0,0)" font-family="Arial" font-size="12">200000</text>
<text x="2" y="183" fill="rgb(0,0,0)" font-family="Arial" font-size="12">250000</text>
<text x="2" y="106" fill="rgb(0,0,0)" font-family="Arial" font-size="12">300000</text>
<text x="282" y="30" fill="rgb(0,0,0)" font-family="Arial" font-size="12">Quality score distribution over all sequences</text>
<line x1="53" y1="560" x2="790" y2="560" stroke="rgb(0,0,0)" stroke-width="1"/>
<line x1="53" y1="560" x2="53" y2="40" stroke="rgb(0,0,0)" stroke-width="1"/>
<text x="281" y="595" fill="rgb(0,0,0)" font-family="Arial" font-size="12">Mean Sequence Quality (Phred Score)</text>
<text x="61" y="575" fill="rgb(0,0,0)" font-family="Arial" font-size="12">6</text>
<rect width="25" height="520" x="78" y="40" style="fill:rgb(230,230,230);stroke:none"/>
<text x="86" y="575" fill="rgb(0,0,0)" font-family="Arial" font-size="12">7</text>
<text x="111" y="575" fill="rgb(0,0,0)" font-family="Arial" font-size="12">8</text>
<rect width="25" height="520" x="128" y="40" style="fill:rgb(230,230,230);stroke:none"/>
<text x="136" y="575" fill="rgb(0,0,0)" font-family="Arial" font-size="12">9</text>
<text x="157" y="575" fill="rgb(0,0,0)" font-family="Arial" font-size="12">10</text>
<rect width="25" height="520" x="178" y="40" style="fill:rgb(230,230,230);stroke:none"/>
<text x="182" y="575" fill="rgb(0,0,0)" font-family="Arial" font-size="12">11</text>
<text x="207" y="575" fill="rgb(0,0,0)" font-family="Arial" font-size="12">12</text>
<rect width="25" height="520" x="228" y="40" style="fill:rgb(230,230,230);stroke:none"/>
<text x="232" y="575" fill="rgb(0,0,0)" font-family="Arial" font-size="12">13</text>
<text x="257" y="575" fill="rgb(0,0,0)" font-family="Arial" font-size="12">14</text>
<rect width="25" height="520" x="278" y="40" style="fill:rgb(230,230,230);stroke:none"/>
<text x="282" y="575" fill="rgb(0,0,0)" font-family="Arial" font-size="12">15</text>
<text x="307" y="575" fill="rgb(0,0,0)" font-family="Arial" font-size="12">16</text>
<rect width="25" height="520" x="328" y="40" style="fill:rgb(230,230,230);stroke:none"/>
<text x="332" y="575" fill="rgb(0,0,0)" font-family="Arial" font-size="12">17</text>
<text x="357" y="575" fill="rgb(0,0,0)" font-family="Arial" font-size="12">18</text>
<rect width="25" height="520" x="378" y="40" style="fill:rgb(230,230,230);stroke:none"/>
<text x="382" y="575" fill="rgb(0,0,0)" font-family="Arial" font-size="12">19</text>
<text x="407" y="575" fill="rgb(0,0,0)" font-family="Arial" font-size="12">20</text>
<rect width="25" height="520" x="428" y="40" style="fill:rgb(230,230,230);stroke:none"/>
<text x="432" y="575" fill="rgb(0,0,0)" font-family="Arial" font-size="12">21</text>
<text x="457" y="575" fill="rgb(0,0,0)" font-family="Arial" font-size="12">22</text>
<rect width="25" height="520" x="478" y="40" style="fill:rgb(230,230,230);stroke:none"/>
<text x="482" y="575" fill="rgb(0,0,0)" font-family="Arial" font-size="12">23</text>
<text x="507" y="575" fill="rgb(0,0,0)" font-family="Arial" font-size="12">24</text>
<rect width="25" height="520" x="528" y="40" style="fill:rgb(230,230,230);stroke:none"/>
<text x="532" y="575" fill="rgb(0,0,0)" font-family="Arial" font-size="12">25</text>
<text x="557" y="575" fill="rgb(0,0,0)" font-family="Arial" font-size="12">26</text>
<rect width="25" height="520" x="578" y="40" style="fill:rgb(230,230,230);stroke:none"/>
<text x="582" y="575" fill="rgb(0,0,0)" font-family="Arial" font-size="12">27</text>
<text x="607" y="575" fill="rgb(0,0,0)" font-family="Arial" font-size="12">28</text>
<rect width="25" height="520" x="628" y="40" style="fill:rgb(230,230,230);stroke:none"/>
<text x="632" y="575" fill="rgb(0,0,0)" font-family="Arial" font-size="12">29</text>
<text x="657" y="575" fill="rgb(0,0,0)" font-family="Arial" font-size="12">30</text>
<rect width="25" height="520" x="678" y="40" style="fill:rgb(230,230,230);stroke:none"/>
<text x="682" y="575" fill="rgb(0,0,0)" font-family="Arial" font-size="12">31</text>
<text x="707" y="575" fill="rgb(0,0,0)" font-family="Arial" font-size="12">32</text>
<rect width="25" height="520" x="728" y="40" style="fill:rgb(230,230,230);stroke:none"/>
<text x="732" y="575" fill="rgb(0,0,0)" font-family="Arial" font-size="12">33</text>
<text x="757" y="575" fill="rgb(0,0,0)" font-family="Arial" font-size="12">34</text>
<line x1="53" y1="560" x2="790" y2="560" stroke="rgb(180,180,180)" stroke-width="1"/>
<line x1="53" y1="484" x2="790" y2="484" stroke="rgb(180,180,180)" stroke-width="1"/>
<line x1="53" y1="407" x2="790" y2="407" stroke="rgb(180,180,180)" stroke-width="1"/>
<line x1="53" y1="330" x2="790" y2="330" stroke="rgb(180,180,180)" stroke-width="1"/>
<line x1="53" y1="254" x2="790" y2="254" stroke="rgb(180,180,180)" stroke-width="1"/>
<line x1="53" y1="177" x2="790" y2="177" stroke="rgb(180,180,180)" stroke-width="1"/>
<line x1="53" y1="100" x2="790" y2="100" stroke="rgb(180,180,180)" stroke-width="1"/>
<line x1="65" y1="557" x2="90" y2="560" stroke="rgb(136,34,85)" stroke-width="1"/>
<line x1="90" y1="560" x2="115" y2="560" stroke="rgb(136,34,85)" stroke-width="1"/>
<line x1="115" y1="560" x2="140" y2="559" stroke="rgb(136,34,85)" stroke-width="1"/>
<line x1="140" y1="559" x2="165" y2="559" stroke="rgb(136,34,85)" stroke-width="1"/>
<line x1="165" y1="559" x2="190" y2="559" stroke="rgb(136,34,85)" stroke-width="1"/>
<line x1="190" y1="559" x2="215" y2="558" stroke="rgb(136,34,85)" stroke-width="1"/>
<line x1="215" y1="558" x2="240" y2="558" stroke="rgb(136,34,85)" stroke-width="1"/>
<line x1="240" y1="558" x2="265" y2="558" stroke="rgb(136,34,85)" stroke-width="1"/>
<line x1="265" y1="558" x2="290" y2="558" stroke="rgb(136,34,85)" stroke-width="1"/>
<line x1="290" y1="558" x2="315" y2="558" stroke="rgb(136,34,85)" stroke-width="1"/>
<line x1="315" y1="558" x2="340" y2="557" stroke="rgb(136,34,85)" stroke-width="1"/>
<line x1="340" y1="557" x2="365" y2="557" stroke="rgb(136,34,85)" stroke-width="1"/>
<line x1="365" y1="557" x2="390" y2="557" stroke="rgb(136,34,85)" stroke-width="1"/>
<line x1="390" y1="557" x2="415" y2="557" stroke="rgb(136,34,85)" stroke-width="1"/>
<line x1="415" y1="557" x2="440" y2="556" stroke="rgb(136,34,85)" stroke-width="1"/>
<line x1="440" y1="556" x2="465" y2="556" stroke="rgb(136,34,85)" stroke-width="1"/>
<line x1="465" y1="556" x2="490" y2="555" stroke="rgb(136,34,85)" stroke-width="1"/>
<line x1="490" y1="555" x2="515" y2="554" stroke="rgb(136,34,85)" stroke-width="1"/>
<line x1="515" y1="554" x2="540" y2="553" stroke="rgb(136,34,85)" stroke-width="1"/>
<line x1="540" y1="553" x2="565" y2="550" stroke="rgb(136,34,85)" stroke-width="1"/>
<line x1="565" y1="550" x2="590" y2="547" stroke="rgb(136,34,85)" stroke-width="1"/>
<line x1="590" y1="547" x2="615" y2="541" stroke="rgb(136,34,85)" stroke-width="1"/>
<line x1="615" y1="541" x2="640" y2="532" stroke="rgb(136,34,85)" stroke-width="1"/>
<line x1="640" y1="532" x2="665" y2="516" stroke="rgb(136,34,85)" stroke-width="1"/>
<line x1="665" y1="516" x2="690" y2="479" stroke="rgb(136,34,85)" stroke-width="1"/>
<line x1="690" y1="479" x2="715" y2="218" stroke="rgb(136,34,85)" stroke-width="1"/>
<line x1="715" y1="218" x2="740" y2="40" stroke="rgb(136,34,85)" stroke-width="1"/>
<line x1="740" y1="40" x2="765" y2="560" stroke="rgb(136,34,85)" stroke-width="1"/>
<rect width="183" height="23" x="607" y="40" style="fill:rgb(255,255,255);stroke:none"/>
<rect width="183" height="23" x="607" y="40" rx="0" ry="0" style="fill:none;stroke-width:1;stroke:rgb(192,192,192)"/>
<text x="610" y="55" fill="rgb(136,34,85)" font-family="Arial" font-size="12" font-weight="bold">Average Quality per read</text>
</svg>
