<?xml version="1.0" standalone="no"?>
<!DOCTYPE svg PUBLIC "-//W3C//DTD SVG 1.1//EN" "http://www.w3.org/Graphics/SVG/1.1/DTD/svg11.dtd">
<svg width="800" height="600" version="1.1" xmlns="http://www.w3.org/2000/svg">
<rect width="800" height="600" x="0" y="0" style="fill:rgb(238,238,238);stroke:none"/>
<rect width="800" height="600" x="0" y="0" style="fill:rgb(255,255,255);stroke:none"/>
<text x="2" y="566" fill="rgb(0,0,0)" font-family="Arial" font-size="12">0</text>
<text x="2" y="474" fill="rgb(0,0,0)" font-family="Arial" font-size="12">100000</text>
<text x="2" y="382" fill="rgb(0,0,0)" font-family="Arial" font-size="12">200000</text>
<text x="2" y="290" fill="rgb(0,0,0)" font-family="Arial" font-size="12">300000</text>
<text x="2" y="198" fill="rgb(0,0,0)" font-family="Arial" font-size="12">400000</text>
<text x="2" y="106" fill="rgb(0,0,0)" font-family="Arial" font-size="12">500000</text>
<text x="282" y="30" fill="rgb(0,0,0)" font-family="Arial" font-size="12">Quality score distribution over all sequences</text>
<line x1="53" y1="560" x2="790" y2="560" stroke="rgb(0,0,0)" stroke-width="1"/>
<line x1="53" y1="560" x2="53" y2="40" stroke="rgb(0,0,0)" stroke-width="1"/>
<text x="281" y="595" fill="rgb(0,0,0)" font-family="Arial" font-size="12">Mean Sequence Quality (Phred Score)</text>
<text x="62" y="575" fill="rgb(0,0,0)" font-family="Arial" font-size="12">6</text>
<rect width="26" height="520" x="79" y="40" style="fill:rgb(230,230,230);stroke:none"/>
<text x="88" y="575" fill="rgb(0,0,0)" font-family="Arial" font-size="12">7</text>
<text x="114" y="575" fill="rgb(0,0,0)" font-family="Arial" font-size="12">8</text>
<rect width="26" height="520" x="131" y="40" style="fill:rgb(230,230,230);stroke:none"/>
<text x="140" y="575" fill="rgb(0,0,0)" font-family="Arial" font-size="12">9</text>
<text x="162" y="575" fill="rgb(0,0,0)" font-family="Arial" font-size="12">10</text>
<rect width="26" height="520" x="183" y="40" style="fill:rgb(230,230,230);stroke:none"/>
<text x="188" y="575" fill="rgb(0,0,0)" font-family="Arial" font-size="12">11</text>
<text x="214" y="575" fill="rgb(0,0,0)" font-family="Arial" font-size="12">12</text>
<rect width="26" height="520" x="235" y="40" style="fill:rgb(230,230,230);stroke:none"/>
<text x="240" y="575" fill="rgb(0,0,0)" font-family="Arial" font-size="12">13</text>
<text x="266" y="575" fill="rgb(0,0,0)" font-family="Arial" font-size="12">14</text>
<rect width="26" height="520" x="287" y="40" style="fill:rgb(230,230,230);stroke:none"/>
<text x="292" y="575" fill="rgb(0,0,0)" font-family="Arial" font-size="12">15</text>
<text x="318" y="575" fill="rgb(0,0,0)" font-family="Arial" font-size="12">16</text>
<rect width="26" height="520" x="339" y="40" style="fill:rgb(230,230,230);stroke:none"/>
<text x="344" y="575" fill="rgb(0,0,0)" font-family="Arial" font-size="12">17</text>
<text x="370" y="575" fill="rgb(0,0,0)" font-family="Arial" font-size="12">18</text>
<rect width="26" height="520" x="391" y="40" style="fill:rgb(230,230,230);stroke:none"/>
<text x="396" y="575" fill="rgb(0,0,0)" font-family="Arial" font-size="12">19</text>
<text x="422" y="575" fill="rgb(0,0,0)" font-family="Arial" font-size="12">20</text>
<rect width="26" height="520" x="443" y="40" style="fill:rgb(230,230,230);stroke:none"/>
<text x="448" y="575" fill="rgb(0,0,0)" font-family="Arial" font-size="12">21</text>
<text x="474" y="575" fill="rgb(0,0,0)" font-family="Arial" font-size="12">22</text>
<rect width="26" height="520" x="495" y="40" style="fill:rgb(230,230,230);stroke:none"/>
<text x="500" y="575" fill="rgb(0,0,0)" font-family="Arial" font-size="12">23</text>
<text x="526" y="575" fill="rgb(0,0,0)" font-family="Arial" font-size="12">24</text>
<rect width="26" height="520" x="547" y="40" style="fill:rgb(230,230,230);stroke:none"/>
<text x="552" y="575" fill="rgb(0,0,0)" font-family="Arial" font-size="12">25</text>
<text x="578" y="575" fill="rgb(0,0,0)" font-family="Arial" font-size="12">26</text>
<rect width="26" height="520" x="599" y="40" style="fill:rgb(230,230,230);stroke:none"/>
<text x="604" y="575" fill="rgb(0,0,0)" font-family="Arial" font-size="12">27</text>
<text x="630" y="575" fill="rgb(0,0,0)" font-family="Arial" font-size="12">28</text>
<rect width="26" height="520" x="651" y="40" style="fill:rgb(230,230,230);stroke:none"/>
<text x="656" y="575" fill="rgb(0,0,0)" font-family="Arial" font-size="12">29</text>
<text x="682" y="575" fill="rgb(0,0,0)" font-family="Arial" font-size="12">30</text>
<rect width="26" height="520" x="703" y="40" style="fill:rgb(230,230,230);stroke:none"/>
<text x="708" y="575" fill="rgb(0,0,0)" font-family="Arial" font-size="12">31</text>
<text x="734" y="575" fill="rgb(0,0,0)" font-family="Arial" font-size="12">32</text>
<rect width="26" height="520" x="755" y="40" style="fill:rgb(230,230,230);stroke:none"/>
<text x="760" y="575" fill="rgb(0,0,0)" font-family="Arial" font-size="12">33</text>
<line x1="53" y1="560" x2="790" y2="560" stroke="rgb(180,180,180)" stroke-width="1"/>
<line x1="53" y1="468" x2="790" y2="468" stroke="rgb(180,180,180)" stroke-width="1"/>
<line x1="53" y1="376" x2="790" y2="376" stroke="rgb(180,180,180)" stroke-width="1"/>
<line x1="53" y1="284" x2="790" y2="284" stroke="rgb(180,180,180)" stroke-width="1"/>
<line x1="53" y1="192" x2="790" y2="192" stroke="rgb(180,180,180)" stroke-width="1"/>
<line x1="53" y1="100" x2="790" y2="100" stroke="rgb(180,180,180)" stroke-width="1"/>
<line x1="66" y1="560" x2="92" y2="560" stroke="rgb(136,34,85)" stroke-width="1"/>
<line x1="92" y1="560" x2="118" y2="560" stroke="rgb(136,34,85)" stroke-width="1"/>
<line x1="118" y1="560" x2="144" y2="560" stroke="rgb(136,34,85)" stroke-width="1"/>
<line x1="144" y1="560" x2="170" y2="559" stroke="rgb(136,34,85)" stroke-width="1"/>
<line x1="170" y1="559" x2="196" y2="559" stroke="rgb(136,34,85)" stroke-width="1"/>
<line x1="196" y1="559" x2="222" y2="558" stroke="rgb(136,34,85)" stroke-width="1"/>
<line x1="222" y1="558" x2="248" y2="557" stroke="rgb(136,34,85)" stroke-width="1"/>
<line x1="248" y1="557" x2="274" y2="556" stroke="rgb(136,34,85)" stroke-width="1"/>
<line x1="274" y1="556" x2="300" y2="556" stroke="rgb(136,34,85)" stroke-width="1"/>
<line x1="300" y1="556" x2="326" y2="555" stroke="rgb(136,34,85)" stroke-width="1"/>
<line x1="326" y1="555" x2="352" y2="554" stroke="rgb(136,34,85)" stroke-width="1"/>
<line x1="352" y1="554" x2="378" y2="553" stroke="rgb(136,34,85)" stroke-width="1"/>
<line x1="378" y1="553" x2="404" y2="552" stroke="rgb(136,34,85)" stroke-width="1"/>
<line x1="404" y1="552" x2="430" y2="551" stroke="rgb(136,34,85)" stroke-width="1"/>
<line x1="430" y1="551" x2="456" y2="549" stroke="rgb(136,34,85)" stroke-width="1"/>
<line x1="456" y1="549" x2="482" y2="548" stroke="rgb(136,34,85)" stroke-width="1"/>
<line x1="482" y1="548" x2="508" y2="546" stroke="rgb(136,34,85)" stroke-width="1"/>
<line x1="508" y1="546" x2="534" y2="544" stroke="rgb(136,34,85)" stroke-width="1"/>
<line x1="534" y1="544" x2="560" y2="541" stroke="rgb(136,34,85)" stroke-width="1"/>
<line x1="560" y1="541" x2="586" y2="536" stroke="rgb(136,34,85)" stroke-width="1"/>
<line x1="586" y1="536" x2="612" y2="528" stroke="rgb(136,34,85)" stroke-width="1"/>
<line x1="612" y1="528" x2="638" y2="514" stroke="rgb(136,34,85)" stroke-width="1"/>
<line x1="638" y1="514" x2="664" y2="488" stroke="rgb(136,34,85)" stroke-width="1"/>
<line x1="664" y1="488" x2="690" y2="412" stroke="rgb(136,34,85)" stroke-width="1"/>
<line x1="690" y1="412" x2="716" y2="40" stroke="rgb(136,34,85)" stroke-width="1"/>
<line x1="716" y1="40" x2="742" y2="339" stroke="rgb(136,34,85)" stroke-width="1"/>
<line x1="742" y1="339" x2="768" y2="560" stroke="rgb(136,34,85)" stroke-width="1"/>
<rect width="183" height="23" x="607" y="40" style="fill:rgb(255,255,255);stroke:none"/>
<rect width="183" height="23" x="607" y="40" rx="0" ry="0" style="fill:none;stroke-width:1;stroke:rgb(192,192,192)"/>
<text x="610" y="55" fill="rgb(136,34,85)" font-family="Arial" font-size="12" font-weight="bold">Average Quality per read</text>
</svg>
